<svg xmlns="http://www.w3.org/2000/svg" width="440" height="92" viewBox="0 0 440 92">
<rect width="440" height="92" fill="#ebedf0"/>
<text x="8" y="14" font-family="-apple-system,BlinkMacSystemFont,Segoe UI,Helvetica,Arial,sans-serif" font-size="10" font-weight="600" fill="#216e39">2023 · 65 天</text>
<text x="16" y="23" font-family="-apple-system,BlinkMacSystemFont,Segoe UI,Helvetica,Arial,sans-serif" font-size="7" fill="#216e39" opacity="0.7">Jan</text>
<text x="56" y="23" font-family="-apple-system,BlinkMacSystemFont,Segoe UI,Helvetica,Arial,sans-serif" font-size="7" fill="#216e39" opacity="0.7">Feb</text>
<text x="88" y="23" font-family="-apple-system,BlinkMacSystemFont,Segoe UI,Helvetica,Arial,sans-serif" font-size="7" fill="#216e39" opacity="0.7">Mar</text>
<text x="120" y="23" font-family="-apple-system,BlinkMacSystemFont,Segoe UI,Helvetica,Arial,sans-serif" font-size="7" fill="#216e39" opacity="0.7">Apr</text>
<text x="152" y="23" font-family="-apple-system,BlinkMacSystemFont,Segoe UI,Helvetica,Arial,sans-serif" font-size="7" fill="#216e39" opacity="0.7">May</text>
<text x="192" y="23" font-family="-apple-system,BlinkMacSystemFont,Segoe UI,Helvetica,Arial,sans-serif" font-size="7" fill="#216e39" opacity="0.7">Jun</text>
<text x="224" y="23" font-family="-apple-system,BlinkMacSystemFont,Segoe UI,Helvetica,Arial,sans-serif" font-size="7" fill="#216e39" opacity="0.7">Jul</text>
<text x="264" y="23" font-family="-apple-system,BlinkMacSystemFont,Segoe UI,Helvetica,Arial,sans-serif" font-size="7" fill="#216e39" opacity="0.7">Aug</text>
<text x="296" y="23" font-family="-apple-system,BlinkMacSystemFont,Segoe UI,Helvetica,Arial,sans-serif" font-size="7" fill="#216e39" opacity="0.7">Sep</text>
<text x="328" y="23" font-family="-apple-system,BlinkMacSystemFont,Segoe UI,Helvetica,Arial,sans-serif" font-size="7" fill="#216e39" opacity="0.7">Oct</text>
<text x="368" y="23" font-family="-apple-system,BlinkMacSystemFont,Segoe UI,Helvetica,Arial,sans-serif" font-size="7" fill="#216e39" opacity="0.7">Nov</text>
<text x="400" y="23" font-family="-apple-system,BlinkMacSystemFont,Segoe UI,Helvetica,Arial,sans-serif" font-size="7" fill="#216e39" opacity="0.7">Dec</text>
<text x="3" y="41" font-family="-apple-system,BlinkMacSystemFont,Segoe UI,Helvetica,Arial,sans-serif" font-size="6" fill="#216e39" opacity="0.6" text-anchor="end">Mon</text>
<text x="3" y="57" font-family="-apple-system,BlinkMacSystemFont,Segoe UI,Helvetica,Arial,sans-serif" font-size="6" fill="#216e39" opacity="0.6" text-anchor="end">Wed</text>
<text x="3" y="73" font-family="-apple-system,BlinkMacSystemFont,Segoe UI,Helvetica,Arial,sans-serif" font-size="6" fill="#216e39" opacity="0.6" text-anchor="end">Fri</text>
<rect x="8" y="76" width="6" height="6" rx="1.5" fill="#ebedf0"/>
<rect x="16" y="28" width="6" height="6" rx="1.5" fill="#ebedf0"/>
<rect x="16" y="36" width="6" height="6" rx="1.5" fill="#ebedf0"/>
<rect x="16" y="44" width="6" height="6" rx="1.5" fill="#ebedf0"/>
<rect x="16" y="52" width="6" height="6" rx="1.5" fill="#ebedf0"/>
<rect x="16" y="60" width="6" height="6" rx="1.5" fill="#ebedf0"/>
<rect x="16" y="68" width="6" height="6" rx="1.5" fill="#ebedf0"/>
<rect x="16" y="76" width="6" height="6" rx="1.5" fill="#ebedf0"/>
<rect x="24" y="28" width="6" height="6" rx="1.5" fill="#ebedf0"/>
<rect x="24" y="36" width="6" height="6" rx="1.5" fill="#ebedf0"/>
<rect x="24" y="44" width="6" height="6" rx="1.5" fill="#ebedf0"/>
<rect x="24" y="52" width="6" height="6" rx="1.5" fill="#ebedf0"/>
<rect x="24" y="60" width="6" height="6" rx="1.5" fill="#ebedf0"/>
<rect x="24" y="68" width="6" height="6" rx="1.5" fill="#ebedf0"/>
<rect x="24" y="76" width="6" height="6" rx="1.5" fill="#ebedf0"/>
<rect x="32" y="28" width="6" height="6" rx="1.5" fill="#ebedf0"/>
<rect x="32" y="36" width="6" height="6" rx="1.5" fill="#ebedf0"/>
<rect x="32" y="44" width="6" height="6" rx="1.5" fill="#ebedf0"/>
<rect x="32" y="52" width="6" height="6" rx="1.5" fill="#ebedf0"/>
<rect x="32" y="60" width="6" height="6" rx="1.5" fill="#ebedf0"/>
<rect x="32" y="68" width="6" height="6" rx="1.5" fill="#ebedf0"/>
<rect x="32" y="76" width="6" height="6" rx="1.5" fill="#ebedf0"/>
<rect x="40" y="28" width="6" height="6" rx="1.5" fill="#ebedf0"/>
<rect x="40" y="36" width="6" height="6" rx="1.5" fill="#ebedf0"/>
<rect x="40" y="44" width="6" height="6" rx="1.5" fill="#ebedf0"/>
<rect x="40" y="52" width="6" height="6" rx="1.5" fill="#ebedf0"/>
<rect x="40" y="60" width="6" height="6" rx="1.5" fill="#ebedf0"/>
<rect x="40" y="68" width="6" height="6" rx="1.5" fill="#ebedf0"/>
<rect x="40" y="76" width="6" height="6" rx="1.5" fill="#ebedf0"/>
<rect x="48" y="28" width="6" height="6" rx="1.5" fill="#ebedf0"/>
<rect x="48" y="36" width="6" height="6" rx="1.5" fill="#9be9a8"><title>2023-01-31 1次</title></rect>
<rect x="48" y="44" width="6" height="6" rx="1.5" fill="#ebedf0"/>
<rect x="48" y="52" width="6" height="6" rx="1.5" fill="#9be9a8"><title>2023-02-02 1次</title></rect>
<rect x="48" y="60" width="6" height="6" rx="1.5" fill="#ebedf0"/>
<rect x="48" y="68" width="6" height="6" rx="1.5" fill="#ebedf0"/>
<rect x="48" y="76" width="6" height="6" rx="1.5" fill="#ebedf0"/>
<rect x="56" y="28" width="6" height="6" rx="1.5" fill="#ebedf0"/>
<rect x="56" y="36" width="6" height="6" rx="1.5" fill="#ebedf0"/>
<rect x="56" y="44" width="6" height="6" rx="1.5" fill="#ebedf0"/>
<rect x="56" y="52" width="6" height="6" rx="1.5" fill="#9be9a8"><title>2023-02-09 1次</title></rect>
<rect x="56" y="60" width="6" height="6" rx="1.5" fill="#ebedf0"/>
<rect x="56" y="68" width="6" height="6" rx="1.5" fill="#9be9a8"><title>2023-02-11 1次</title></rect>
<rect x="56" y="76" width="6" height="6" rx="1.5" fill="#ebedf0"/>
<rect x="64" y="28" width="6" height="6" rx="1.5" fill="#ebedf0"/>
<rect x="64" y="36" width="6" height="6" rx="1.5" fill="#9be9a8"><title>2023-02-14 1次</title></rect>
<rect x="64" y="44" width="6" height="6" rx="1.5" fill="#ebedf0"/>
<rect x="64" y="52" width="6" height="6" rx="1.5" fill="#ebedf0"/>
<rect x="64" y="60" width="6" height="6" rx="1.5" fill="#9be9a8"><title>2023-02-17 1次</title></rect>
<rect x="64" y="68" width="6" height="6" rx="1.5" fill="#ebedf0"/>
<rect x="64" y="76" width="6" height="6" rx="1.5" fill="#ebedf0"/>
<rect x="72" y="28" width="6" height="6" rx="1.5" fill="#9be9a8"><title>2023-02-20 1次</title></rect>
<rect x="72" y="36" width="6" height="6" rx="1.5" fill="#ebedf0"/>
<rect x="72" y="44" width="6" height="6" rx="1.5" fill="#ebedf0"/>
<rect x="72" y="52" width="6" height="6" rx="1.5" fill="#9be9a8"><title>2023-02-23 1次</title></rect>
<rect x="72" y="60" width="6" height="6" rx="1.5" fill="#ebedf0"/>
<rect x="72" y="68" width="6" height="6" rx="1.5" fill="#9be9a8"><title>2023-02-25 1次</title></rect>
<rect x="72" y="76" width="6" height="6" rx="1.5" fill="#9be9a8"><title>2023-02-26 1次</title></rect>
<rect x="80" y="28" width="6" height="6" rx="1.5" fill="#40c463"><title>2023-02-27 2次</title></rect>
<rect x="80" y="36" width="6" height="6" rx="1.5" fill="#ebedf0"/>
<rect x="80" y="44" width="6" height="6" rx="1.5" fill="#40c463"><title>2023-03-01 2次</title></rect>
<rect x="80" y="52" width="6" height="6" rx="1.5" fill="#ebedf0"/>
<rect x="80" y="60" width="6" height="6" rx="1.5" fill="#ebedf0"/>
<rect x="80" y="68" width="6" height="6" rx="1.5" fill="#ebedf0"/>
<rect x="80" y="76" width="6" height="6" rx="1.5" fill="#ebedf0"/>
<rect x="88" y="28" width="6" height="6" rx="1.5" fill="#ebedf0"/>
<rect x="88" y="36" width="6" height="6" rx="1.5" fill="#ebedf0"/>
<rect x="88" y="44" width="6" height="6" rx="1.5" fill="#ebedf0"/>
<rect x="88" y="52" width="6" height="6" rx="1.5" fill="#ebedf0"/>
<rect x="88" y="60" width="6" height="6" rx="1.5" fill="#9be9a8"><title>2023-03-10 1次</title></rect>
<rect x="88" y="68" width="6" height="6" rx="1.5" fill="#ebedf0"/>
<rect x="88" y="76" width="6" height="6" rx="1.5" fill="#ebedf0"/>
<rect x="96" y="28" width="6" height="6" rx="1.5" fill="#40c463"><title>2023-03-13 2次</title></rect>
<rect x="96" y="36" width="6" height="6" rx="1.5" fill="#ebedf0"/>
<rect x="96" y="44" width="6" height="6" rx="1.5" fill="#9be9a8"><title>2023-03-15 1次</title></rect>
<rect x="96" y="52" width="6" height="6" rx="1.5" fill="#9be9a8"><title>2023-03-16 1次</title></rect>
<rect x="96" y="60" width="6" height="6" rx="1.5" fill="#ebedf0"/>
<rect x="96" y="68" width="6" height="6" rx="1.5" fill="#40c463"><title>2023-03-18 2次</title></rect>
<rect x="96" y="76" width="6" height="6" rx="1.5" fill="#ebedf0"/>
<rect x="104" y="28" width="6" height="6" rx="1.5" fill="#9be9a8"><title>2023-03-20 1次</title></rect>
<rect x="104" y="36" width="6" height="6" rx="1.5" fill="#ebedf0"/>
<rect x="104" y="44" width="6" height="6" rx="1.5" fill="#40c463"><title>2023-03-22 2次</title></rect>
<rect x="104" y="52" width="6" height="6" rx="1.5" fill="#9be9a8"><title>2023-03-23 1次</title></rect>
<rect x="104" y="60" width="6" height="6" rx="1.5" fill="#ebedf0"/>
<rect x="104" y="68" width="6" height="6" rx="1.5" fill="#ebedf0"/>
<rect x="104" y="76" width="6" height="6" rx="1.5" fill="#ebedf0"/>
<rect x="112" y="28" width="6" height="6" rx="1.5" fill="#30a14e"><title>2023-03-27 3次</title></rect>
<rect x="112" y="36" width="6" height="6" rx="1.5" fill="#ebedf0"/>
<rect x="112" y="44" width="6" height="6" rx="1.5" fill="#40c463"><title>2023-03-29 2次</title></rect>
<rect x="112" y="52" width="6" height="6" rx="1.5" fill="#ebedf0"/>
<rect x="112" y="60" width="6" height="6" rx="1.5" fill="#ebedf0"/>
<rect x="112" y="68" width="6" height="6" rx="1.5" fill="#30a14e"><title>2023-04-01 3次</title></rect>
<rect x="112" y="76" width="6" height="6" rx="1.5" fill="#ebedf0"/>
<rect x="120" y="28" width="6" height="6" rx="1.5" fill="#ebedf0"/>
<rect x="120" y="36" width="6" height="6" rx="1.5" fill="#ebedf0"/>
<rect x="120" y="44" width="6" height="6" rx="1.5" fill="#ebedf0"/>
<rect x="120" y="52" width="6" height="6" rx="1.5" fill="#9be9a8"><title>2023-04-06 1次</title></rect>
<rect x="120" y="60" width="6" height="6" rx="1.5" fill="#9be9a8"><title>2023-04-07 1次</title></rect>
<rect x="120" y="68" width="6" height="6" rx="1.5" fill="#ebedf0"/>
<rect x="120" y="76" width="6" height="6" rx="1.5" fill="#9be9a8"><title>2023-04-09 1次</title></rect>
<rect x="128" y="28" width="6" height="6" rx="1.5" fill="#30a14e"><title>2023-04-10 3次</title></rect>
<rect x="128" y="36" width="6" height="6" rx="1.5" fill="#40c463"><title>2023-04-11 2次</title></rect>
<rect x="128" y="44" width="6" height="6" rx="1.5" fill="#ebedf0"/>
<rect x="128" y="52" width="6" height="6" rx="1.5" fill="#ebedf0"/>
<rect x="128" y="60" width="6" height="6" rx="1.5" fill="#ebedf0"/>
<rect x="128" y="68" width="6" height="6" rx="1.5" fill="#40c463"><title>2023-04-15 2次</title></rect>
<rect x="128" y="76" width="6" height="6" rx="1.5" fill="#ebedf0"/>
<rect x="136" y="28" width="6" height="6" rx="1.5" fill="#40c463"><title>2023-04-17 2次</title></rect>
<rect x="136" y="36" width="6" height="6" rx="1.5" fill="#ebedf0"/>
<rect x="136" y="44" width="6" height="6" rx="1.5" fill="#9be9a8"><title>2023-04-19 1次</title></rect>
<rect x="136" y="52" width="6" height="6" rx="1.5" fill="#ebedf0"/>
<rect x="136" y="60" width="6" height="6" rx="1.5" fill="#ebedf0"/>
<rect x="136" y="68" width="6" height="6" rx="1.5" fill="#9be9a8"><title>2023-04-22 1次</title></rect>
<rect x="136" y="76" width="6" height="6" rx="1.5" fill="#ebedf0"/>
<rect x="144" y="28" width="6" height="6" rx="1.5" fill="#ebedf0"/>
<rect x="144" y="36" width="6" height="6" rx="1.5" fill="#ebedf0"/>
<rect x="144" y="44" width="6" height="6" rx="1.5" fill="#ebedf0"/>
<rect x="144" y="52" width="6" height="6" rx="1.5" fill="#ebedf0"/>
<rect x="144" y="60" width="6" height="6" rx="1.5" fill="#ebedf0"/>
<rect x="144" y="68" width="6" height="6" rx="1.5" fill="#ebedf0"/>
<rect x="144" y="76" width="6" height="6" rx="1.5" fill="#ebedf0"/>
<rect x="152" y="28" width="6" height="6" rx="1.5" fill="#ebedf0"/>
<rect x="152" y="36" width="6" height="6" rx="1.5" fill="#ebedf0"/>
<rect x="152" y="44" width="6" height="6" rx="1.5" fill="#ebedf0"/>
<rect x="152" y="52" width="6" height="6" rx="1.5" fill="#ebedf0"/>
<rect x="152" y="60" width="6" height="6" rx="1.5" fill="#ebedf0"/>
<rect x="152" y="68" width="6" height="6" rx="1.5" fill="#ebedf0"/>
<rect x="152" y="76" width="6" height="6" rx="1.5" fill="#ebedf0"/>
<rect x="160" y="28" width="6" height="6" rx="1.5" fill="#ebedf0"/>
<rect x="160" y="36" width="6" height="6" rx="1.5" fill="#ebedf0"/>
<rect x="160" y="44" width="6" height="6" rx="1.5" fill="#ebedf0"/>
<rect x="160" y="52" width="6" height="6" rx="1.5" fill="#ebedf0"/>
<rect x="160" y="60" width="6" height="6" rx="1.5" fill="#ebedf0"/>
<rect x="160" y="68" width="6" height="6" rx="1.5" fill="#9be9a8"><title>2023-05-13 1次</title></rect>
<rect x="160" y="76" width="6" height="6" rx="1.5" fill="#40c463"><title>2023-05-14 2次</title></rect>
<rect x="168" y="28" width="6" height="6" rx="1.5" fill="#9be9a8"><title>2023-05-15 1次</title></rect>
<rect x="168" y="36" width="6" height="6" rx="1.5" fill="#ebedf0"/>
<rect x="168" y="44" width="6" height="6" rx="1.5" fill="#ebedf0"/>
<rect x="168" y="52" width="6" height="6" rx="1.5" fill="#ebedf0"/>
<rect x="168" y="60" width="6" height="6" rx="1.5" fill="#ebedf0"/>
<rect x="168" y="68" width="6" height="6" rx="1.5" fill="#9be9a8"><title>2023-05-20 1次</title></rect>
<rect x="168" y="76" width="6" height="6" rx="1.5" fill="#9be9a8"><title>2023-05-21 1次</title></rect>
<rect x="176" y="28" width="6" height="6" rx="1.5" fill="#ebedf0"/>
<rect x="176" y="36" width="6" height="6" rx="1.5" fill="#ebedf0"/>
<rect x="176" y="44" width="6" height="6" rx="1.5" fill="#ebedf0"/>
<rect x="176" y="52" width="6" height="6" rx="1.5" fill="#ebedf0"/>
<rect x="176" y="60" width="6" height="6" rx="1.5" fill="#ebedf0"/>
<rect x="176" y="68" width="6" height="6" rx="1.5" fill="#ebedf0"/>
<rect x="176" y="76" width="6" height="6" rx="1.5" fill="#ebedf0"/>
<rect x="184" y="28" width="6" height="6" rx="1.5" fill="#ebedf0"/>
<rect x="184" y="36" width="6" height="6" rx="1.5" fill="#ebedf0"/>
<rect x="184" y="44" width="6" height="6" rx="1.5" fill="#ebedf0"/>
<rect x="184" y="52" width="6" height="6" rx="1.5" fill="#ebedf0"/>
<rect x="184" y="60" width="6" height="6" rx="1.5" fill="#ebedf0"/>
<rect x="184" y="68" width="6" height="6" rx="1.5" fill="#ebedf0"/>
<rect x="184" y="76" width="6" height="6" rx="1.5" fill="#ebedf0"/>
<rect x="192" y="28" width="6" height="6" rx="1.5" fill="#ebedf0"/>
<rect x="192" y="36" width="6" height="6" rx="1.5" fill="#ebedf0"/>
<rect x="192" y="44" width="6" height="6" rx="1.5" fill="#ebedf0"/>
<rect x="192" y="52" width="6" height="6" rx="1.5" fill="#ebedf0"/>
<rect x="192" y="60" width="6" height="6" rx="1.5" fill="#ebedf0"/>
<rect x="192" y="68" width="6" height="6" rx="1.5" fill="#ebedf0"/>
<rect x="192" y="76" width="6" height="6" rx="1.5" fill="#ebedf0"/>
<rect x="200" y="28" width="6" height="6" rx="1.5" fill="#ebedf0"/>
<rect x="200" y="36" width="6" height="6" rx="1.5" fill="#ebedf0"/>
<rect x="200" y="44" width="6" height="6" rx="1.5" fill="#ebedf0"/>
<rect x="200" y="52" width="6" height="6" rx="1.5" fill="#ebedf0"/>
<rect x="200" y="60" width="6" height="6" rx="1.5" fill="#ebedf0"/>
<rect x="200" y="68" width="6" height="6" rx="1.5" fill="#40c463"><title>2023-06-17 2次</title></rect>
<rect x="200" y="76" width="6" height="6" rx="1.5" fill="#ebedf0"/>
<rect x="208" y="28" width="6" height="6" rx="1.5" fill="#ebedf0"/>
<rect x="208" y="36" width="6" height="6" rx="1.5" fill="#ebedf0"/>
<rect x="208" y="44" width="6" height="6" rx="1.5" fill="#ebedf0"/>
<rect x="208" y="52" width="6" height="6" rx="1.5" fill="#ebedf0"/>
<rect x="208" y="60" width="6" height="6" rx="1.5" fill="#ebedf0"/>
<rect x="208" y="68" width="6" height="6" rx="1.5" fill="#ebedf0"/>
<rect x="208" y="76" width="6" height="6" rx="1.5" fill="#ebedf0"/>
<rect x="216" y="28" width="6" height="6" rx="1.5" fill="#ebedf0"/>
<rect x="216" y="36" width="6" height="6" rx="1.5" fill="#ebedf0"/>
<rect x="216" y="44" width="6" height="6" rx="1.5" fill="#ebedf0"/>
<rect x="216" y="52" width="6" height="6" rx="1.5" fill="#ebedf0"/>
<rect x="216" y="60" width="6" height="6" rx="1.5" fill="#ebedf0"/>
<rect x="216" y="68" width="6" height="6" rx="1.5" fill="#ebedf0"/>
<rect x="216" y="76" width="6" height="6" rx="1.5" fill="#9be9a8"><title>2023-07-02 1次</title></rect>
<rect x="224" y="28" width="6" height="6" rx="1.5" fill="#ebedf0"/>
<rect x="224" y="36" width="6" height="6" rx="1.5" fill="#ebedf0"/>
<rect x="224" y="44" width="6" height="6" rx="1.5" fill="#ebedf0"/>
<rect x="224" y="52" width="6" height="6" rx="1.5" fill="#ebedf0"/>
<rect x="224" y="60" width="6" height="6" rx="1.5" fill="#ebedf0"/>
<rect x="224" y="68" width="6" height="6" rx="1.5" fill="#ebedf0"/>
<rect x="224" y="76" width="6" height="6" rx="1.5" fill="#ebedf0"/>
<rect x="232" y="28" width="6" height="6" rx="1.5" fill="#ebedf0"/>
<rect x="232" y="36" width="6" height="6" rx="1.5" fill="#ebedf0"/>
<rect x="232" y="44" width="6" height="6" rx="1.5" fill="#ebedf0"/>
<rect x="232" y="52" width="6" height="6" rx="1.5" fill="#ebedf0"/>
<rect x="232" y="60" width="6" height="6" rx="1.5" fill="#ebedf0"/>
<rect x="232" y="68" width="6" height="6" rx="1.5" fill="#ebedf0"/>
<rect x="232" y="76" width="6" height="6" rx="1.5" fill="#ebedf0"/>
<rect x="240" y="28" width="6" height="6" rx="1.5" fill="#ebedf0"/>
<rect x="240" y="36" width="6" height="6" rx="1.5" fill="#ebedf0"/>
<rect x="240" y="44" width="6" height="6" rx="1.5" fill="#ebedf0"/>
<rect x="240" y="52" width="6" height="6" rx="1.5" fill="#ebedf0"/>
<rect x="240" y="60" width="6" height="6" rx="1.5" fill="#ebedf0"/>
<rect x="240" y="68" width="6" height="6" rx="1.5" fill="#ebedf0"/>
<rect x="240" y="76" width="6" height="6" rx="1.5" fill="#ebedf0"/>
<rect x="248" y="28" width="6" height="6" rx="1.5" fill="#ebedf0"/>
<rect x="248" y="36" width="6" height="6" rx="1.5" fill="#ebedf0"/>
<rect x="248" y="44" width="6" height="6" rx="1.5" fill="#ebedf0"/>
<rect x="248" y="52" width="6" height="6" rx="1.5" fill="#ebedf0"/>
<rect x="248" y="60" width="6" height="6" rx="1.5" fill="#ebedf0"/>
<rect x="248" y="68" width="6" height="6" rx="1.5" fill="#ebedf0"/>
<rect x="248" y="76" width="6" height="6" rx="1.5" fill="#ebedf0"/>
<rect x="256" y="28" width="6" height="6" rx="1.5" fill="#ebedf0"/>
<rect x="256" y="36" width="6" height="6" rx="1.5" fill="#ebedf0"/>
<rect x="256" y="44" width="6" height="6" rx="1.5" fill="#ebedf0"/>
<rect x="256" y="52" width="6" height="6" rx="1.5" fill="#ebedf0"/>
<rect x="256" y="60" width="6" height="6" rx="1.5" fill="#ebedf0"/>
<rect x="256" y="68" width="6" height="6" rx="1.5" fill="#9be9a8"><title>2023-08-05 1次</title></rect>
<rect x="256" y="76" width="6" height="6" rx="1.5" fill="#9be9a8"><title>2023-08-06 1次</title></rect>
<rect x="264" y="28" width="6" height="6" rx="1.5" fill="#ebedf0"/>
<rect x="264" y="36" width="6" height="6" rx="1.5" fill="#ebedf0"/>
<rect x="264" y="44" width="6" height="6" rx="1.5" fill="#ebedf0"/>
<rect x="264" y="52" width="6" height="6" rx="1.5" fill="#ebedf0"/>
<rect x="264" y="60" width="6" height="6" rx="1.5" fill="#ebedf0"/>
<rect x="264" y="68" width="6" height="6" rx="1.5" fill="#40c463"><title>2023-08-12 2次</title></rect>
<rect x="264" y="76" width="6" height="6" rx="1.5" fill="#9be9a8"><title>2023-08-13 1次</title></rect>
<rect x="272" y="28" width="6" height="6" rx="1.5" fill="#ebedf0"/>
<rect x="272" y="36" width="6" height="6" rx="1.5" fill="#ebedf0"/>
<rect x="272" y="44" width="6" height="6" rx="1.5" fill="#ebedf0"/>
<rect x="272" y="52" width="6" height="6" rx="1.5" fill="#ebedf0"/>
<rect x="272" y="60" width="6" height="6" rx="1.5" fill="#ebedf0"/>
<rect x="272" y="68" width="6" height="6" rx="1.5" fill="#9be9a8"><title>2023-08-19 1次</title></rect>
<rect x="272" y="76" width="6" height="6" rx="1.5" fill="#9be9a8"><title>2023-08-20 1次</title></rect>
<rect x="280" y="28" width="6" height="6" rx="1.5" fill="#ebedf0"/>
<rect x="280" y="36" width="6" height="6" rx="1.5" fill="#ebedf0"/>
<rect x="280" y="44" width="6" height="6" rx="1.5" fill="#ebedf0"/>
<rect x="280" y="52" width="6" height="6" rx="1.5" fill="#ebedf0"/>
<rect x="280" y="60" width="6" height="6" rx="1.5" fill="#ebedf0"/>
<rect x="280" y="68" width="6" height="6" rx="1.5" fill="#ebedf0"/>
<rect x="280" y="76" width="6" height="6" rx="1.5" fill="#9be9a8"><title>2023-08-27 1次</title></rect>
<rect x="288" y="28" width="6" height="6" rx="1.5" fill="#ebedf0"/>
<rect x="288" y="36" width="6" height="6" rx="1.5" fill="#ebedf0"/>
<rect x="288" y="44" width="6" height="6" rx="1.5" fill="#ebedf0"/>
<rect x="288" y="52" width="6" height="6" rx="1.5" fill="#ebedf0"/>
<rect x="288" y="60" width="6" height="6" rx="1.5" fill="#ebedf0"/>
<rect x="288" y="68" width="6" height="6" rx="1.5" fill="#ebedf0"/>
<rect x="288" y="76" width="6" height="6" rx="1.5" fill="#ebedf0"/>
<rect x="296" y="28" width="6" height="6" rx="1.5" fill="#ebedf0"/>
<rect x="296" y="36" width="6" height="6" rx="1.5" fill="#ebedf0"/>
<rect x="296" y="44" width="6" height="6" rx="1.5" fill="#ebedf0"/>
<rect x="296" y="52" width="6" height="6" rx="1.5" fill="#ebedf0"/>
<rect x="296" y="60" width="6" height="6" rx="1.5" fill="#ebedf0"/>
<rect x="296" y="68" width="6" height="6" rx="1.5" fill="#ebedf0"/>
<rect x="296" y="76" width="6" height="6" rx="1.5" fill="#ebedf0"/>
<rect x="304" y="28" width="6" height="6" rx="1.5" fill="#ebedf0"/>
<rect x="304" y="36" width="6" height="6" rx="1.5" fill="#ebedf0"/>
<rect x="304" y="44" width="6" height="6" rx="1.5" fill="#9be9a8"><title>2023-09-13 1次</title></rect>
<rect x="304" y="52" width="6" height="6" rx="1.5" fill="#ebedf0"/>
<rect x="304" y="60" width="6" height="6" rx="1.5" fill="#ebedf0"/>
<rect x="304" y="68" width="6" height="6" rx="1.5" fill="#ebedf0"/>
<rect x="304" y="76" width="6" height="6" rx="1.5" fill="#9be9a8"><title>2023-09-17 1次</title></rect>
<rect x="312" y="28" width="6" height="6" rx="1.5" fill="#9be9a8"><title>2023-09-18 1次</title></rect>
<rect x="312" y="36" width="6" height="6" rx="1.5" fill="#ebedf0"/>
<rect x="312" y="44" width="6" height="6" rx="1.5" fill="#9be9a8"><title>2023-09-20 1次</title></rect>
<rect x="312" y="52" width="6" height="6" rx="1.5" fill="#9be9a8"><title>2023-09-21 1次</title></rect>
<rect x="312" y="60" width="6" height="6" rx="1.5" fill="#ebedf0"/>
<rect x="312" y="68" width="6" height="6" rx="1.5" fill="#40c463"><title>2023-09-23 2次</title></rect>
<rect x="312" y="76" width="6" height="6" rx="1.5" fill="#ebedf0"/>
<rect x="320" y="28" width="6" height="6" rx="1.5" fill="#ebedf0"/>
<rect x="320" y="36" width="6" height="6" rx="1.5" fill="#ebedf0"/>
<rect x="320" y="44" width="6" height="6" rx="1.5" fill="#ebedf0"/>
<rect x="320" y="52" width="6" height="6" rx="1.5" fill="#ebedf0"/>
<rect x="320" y="60" width="6" height="6" rx="1.5" fill="#ebedf0"/>
<rect x="320" y="68" width="6" height="6" rx="1.5" fill="#ebedf0"/>
<rect x="320" y="76" width="6" height="6" rx="1.5" fill="#ebedf0"/>
<rect x="328" y="28" width="6" height="6" rx="1.5" fill="#ebedf0"/>
<rect x="328" y="36" width="6" height="6" rx="1.5" fill="#ebedf0"/>
<rect x="328" y="44" width="6" height="6" rx="1.5" fill="#ebedf0"/>
<rect x="328" y="52" width="6" height="6" rx="1.5" fill="#ebedf0"/>
<rect x="328" y="60" width="6" height="6" rx="1.5" fill="#ebedf0"/>
<rect x="328" y="68" width="6" height="6" rx="1.5" fill="#9be9a8"><title>2023-10-07 1次</title></rect>
<rect x="328" y="76" width="6" height="6" rx="1.5" fill="#9be9a8"><title>2023-10-08 1次</title></rect>
<rect x="336" y="28" width="6" height="6" rx="1.5" fill="#ebedf0"/>
<rect x="336" y="36" width="6" height="6" rx="1.5" fill="#ebedf0"/>
<rect x="336" y="44" width="6" height="6" rx="1.5" fill="#9be9a8"><title>2023-10-11 1次</title></rect>
<rect x="336" y="52" width="6" height="6" rx="1.5" fill="#40c463"><title>2023-10-12 2次</title></rect>
<rect x="336" y="60" width="6" height="6" rx="1.5" fill="#9be9a8"><title>2023-10-13 1次</title></rect>
<rect x="336" y="68" width="6" height="6" rx="1.5" fill="#ebedf0"/>
<rect x="336" y="76" width="6" height="6" rx="1.5" fill="#9be9a8"><title>2023-10-15 1次</title></rect>
<rect x="344" y="28" width="6" height="6" rx="1.5" fill="#ebedf0"/>
<rect x="344" y="36" width="6" height="6" rx="1.5" fill="#ebedf0"/>
<rect x="344" y="44" width="6" height="6" rx="1.5" fill="#ebedf0"/>
<rect x="344" y="52" width="6" height="6" rx="1.5" fill="#ebedf0"/>
<rect x="344" y="60" width="6" height="6" rx="1.5" fill="#ebedf0"/>
<rect x="344" y="68" width="6" height="6" rx="1.5" fill="#ebedf0"/>
<rect x="344" y="76" width="6" height="6" rx="1.5" fill="#ebedf0"/>
<rect x="352" y="28" width="6" height="6" rx="1.5" fill="#ebedf0"/>
<rect x="352" y="36" width="6" height="6" rx="1.5" fill="#9be9a8"><title>2023-10-24 1次</title></rect>
<rect x="352" y="44" width="6" height="6" rx="1.5" fill="#ebedf0"/>
<rect x="352" y="52" width="6" height="6" rx="1.5" fill="#ebedf0"/>
<rect x="352" y="60" width="6" height="6" rx="1.5" fill="#ebedf0"/>
<rect x="352" y="68" width="6" height="6" rx="1.5" fill="#ebedf0"/>
<rect x="352" y="76" width="6" height="6" rx="1.5" fill="#ebedf0"/>
<rect x="360" y="28" width="6" height="6" rx="1.5" fill="#ebedf0"/>
<rect x="360" y="36" width="6" height="6" rx="1.5" fill="#ebedf0"/>
<rect x="360" y="44" width="6" height="6" rx="1.5" fill="#ebedf0"/>
<rect x="360" y="52" width="6" height="6" rx="1.5" fill="#ebedf0"/>
<rect x="360" y="60" width="6" height="6" rx="1.5" fill="#ebedf0"/>
<rect x="360" y="68" width="6" height="6" rx="1.5" fill="#ebedf0"/>
<rect x="360" y="76" width="6" height="6" rx="1.5" fill="#9be9a8"><title>2023-11-05 1次</title></rect>
<rect x="368" y="28" width="6" height="6" rx="1.5" fill="#ebedf0"/>
<rect x="368" y="36" width="6" height="6" rx="1.5" fill="#ebedf0"/>
<rect x="368" y="44" width="6" height="6" rx="1.5" fill="#ebedf0"/>
<rect x="368" y="52" width="6" height="6" rx="1.5" fill="#ebedf0"/>
<rect x="368" y="60" width="6" height="6" rx="1.5" fill="#ebedf0"/>
<rect x="368" y="68" width="6" height="6" rx="1.5" fill="#ebedf0"/>
<rect x="368" y="76" width="6" height="6" rx="1.5" fill="#ebedf0"/>
<rect x="376" y="28" width="6" height="6" rx="1.5" fill="#ebedf0"/>
<rect x="376" y="36" width="6" height="6" rx="1.5" fill="#ebedf0"/>
<rect x="376" y="44" width="6" height="6" rx="1.5" fill="#ebedf0"/>
<rect x="376" y="52" width="6" height="6" rx="1.5" fill="#ebedf0"/>
<rect x="376" y="60" width="6" height="6" rx="1.5" fill="#ebedf0"/>
<rect x="376" y="68" width="6" height="6" rx="1.5" fill="#ebedf0"/>
<rect x="376" y="76" width="6" height="6" rx="1.5" fill="#ebedf0"/>
<rect x="384" y="28" width="6" height="6" rx="1.5" fill="#ebedf0"/>
<rect x="384" y="36" width="6" height="6" rx="1.5" fill="#ebedf0"/>
<rect x="384" y="44" width="6" height="6" rx="1.5" fill="#ebedf0"/>
<rect x="384" y="52" width="6" height="6" rx="1.5" fill="#ebedf0"/>
<rect x="384" y="60" width="6" height="6" rx="1.5" fill="#ebedf0"/>
<rect x="384" y="68" width="6" height="6" rx="1.5" fill="#ebedf0"/>
<rect x="384" y="76" width="6" height="6" rx="1.5" fill="#216e39"><title>2023-11-26 4次</title></rect>
<rect x="392" y="28" width="6" height="6" rx="1.5" fill="#ebedf0"/>
<rect x="392" y="36" width="6" height="6" rx="1.5" fill="#ebedf0"/>
<rect x="392" y="44" width="6" height="6" rx="1.5" fill="#ebedf0"/>
<rect x="392" y="52" width="6" height="6" rx="1.5" fill="#9be9a8"><title>2023-11-30 1次</title></rect>
<rect x="392" y="60" width="6" height="6" rx="1.5" fill="#ebedf0"/>
<rect x="392" y="68" width="6" height="6" rx="1.5" fill="#ebedf0"/>
<rect x="392" y="76" width="6" height="6" rx="1.5" fill="#30a14e"><title>2023-12-03 3次</title></rect>
<rect x="400" y="28" width="6" height="6" rx="1.5" fill="#ebedf0"/>
<rect x="400" y="36" width="6" height="6" rx="1.5" fill="#ebedf0"/>
<rect x="400" y="44" width="6" height="6" rx="1.5" fill="#ebedf0"/>
<rect x="400" y="52" width="6" height="6" rx="1.5" fill="#ebedf0"/>
<rect x="400" y="60" width="6" height="6" rx="1.5" fill="#ebedf0"/>
<rect x="400" y="68" width="6" height="6" rx="1.5" fill="#ebedf0"/>
<rect x="400" y="76" width="6" height="6" rx="1.5" fill="#ebedf0"/>
<rect x="408" y="28" width="6" height="6" rx="1.5" fill="#ebedf0"/>
<rect x="408" y="36" width="6" height="6" rx="1.5" fill="#ebedf0"/>
<rect x="408" y="44" width="6" height="6" rx="1.5" fill="#ebedf0"/>
<rect x="408" y="52" width="6" height="6" rx="1.5" fill="#ebedf0"/>
<rect x="408" y="60" width="6" height="6" rx="1.5" fill="#ebedf0"/>
<rect x="408" y="68" width="6" height="6" rx="1.5" fill="#9be9a8"><title>2023-12-16 1次</title></rect>
<rect x="408" y="76" width="6" height="6" rx="1.5" fill="#9be9a8"><title>2023-12-17 1次</title></rect>
<rect x="416" y="28" width="6" height="6" rx="1.5" fill="#ebedf0"/>
<rect x="416" y="36" width="6" height="6" rx="1.5" fill="#ebedf0"/>
<rect x="416" y="44" width="6" height="6" rx="1.5" fill="#ebedf0"/>
<rect x="416" y="52" width="6" height="6" rx="1.5" fill="#ebedf0"/>
<rect x="416" y="60" width="6" height="6" rx="1.5" fill="#ebedf0"/>
<rect x="416" y="68" width="6" height="6" rx="1.5" fill="#ebedf0"/>
<rect x="416" y="76" width="6" height="6" rx="1.5" fill="#ebedf0"/>
<rect x="424" y="28" width="6" height="6" rx="1.5" fill="#ebedf0"/>
<rect x="424" y="36" width="6" height="6" rx="1.5" fill="#ebedf0"/>
<rect x="424" y="44" width="6" height="6" rx="1.5" fill="#ebedf0"/>
<rect x="424" y="52" width="6" height="6" rx="1.5" fill="#ebedf0"/>
<rect x="424" y="60" width="6" height="6" rx="1.5" fill="#ebedf0"/>
<rect x="424" y="68" width="6" height="6" rx="1.5" fill="#ebedf0"/>
<rect x="424" y="76" width="6" height="6" rx="1.5" fill="#ebedf0"/>
<text x="8" y="97" font-family="-apple-system,BlinkMacSystemFont,Segoe UI,Helvetica,Arial,sans-serif" font-size="6" fill="#216e39" opacity="0.6">Less</text>
<rect x="30" y="92" width="6" height="6" rx="1.5" fill="#ebedf0"/>
<rect x="38" y="92" width="6" height="6" rx="1.5" fill="#9be9a8"/>
<rect x="46" y="92" width="6" height="6" rx="1.5" fill="#40c463"/>
<rect x="54" y="92" width="6" height="6" rx="1.5" fill="#30a14e"/>
<rect x="62" y="92" width="6" height="6" rx="1.5" fill="#216e39"/>
<text x="70" y="97" font-family="-apple-system,BlinkMacSystemFont,Segoe UI,Helvetica,Arial,sans-serif" font-size="6" fill="#216e39" opacity="0.6">More</text>
</svg>